<svg xmlns="http://www.w3.org/2000/svg" width="1280" height="720" viewBox="0 0 1280 720">
  <defs>
    <radialGradient id="bg" cx="50%" cy="44%" r="68%">
      <stop offset="0" stop-color="#302314"/>
      <stop offset=".5" stop-color="#17130f"/>
      <stop offset="1" stop-color="#090807"/>
    </radialGradient>
    <radialGradient id="halo" cx="50%" cy="50%" r="50%">
      <stop offset="0" stop-color="#e7bd67" stop-opacity=".38"/>
      <stop offset=".42" stop-color="#b4782f" stop-opacity=".12"/>
      <stop offset="1" stop-color="#5a3618" stop-opacity="0"/>
    </radialGradient>
    <linearGradient id="gold" x1="0" y1="0" x2="1" y2="1">
      <stop offset="0" stop-color="#f3d996"/>
      <stop offset=".35" stop-color="#b77b2b"/>
      <stop offset=".65" stop-color="#f0c46d"/>
      <stop offset="1" stop-color="#6c421b"/>
    </linearGradient>
    <linearGradient id="inkGold" x1="0" y1="0" x2="0" y2="1">
      <stop offset="0" stop-color="#edd087" stop-opacity=".9"/>
      <stop offset="1" stop-color="#97703a" stop-opacity=".2"/>
    </linearGradient>
    <filter id="glow" x="-80%" y="-80%" width="260%" height="260%">
      <feGaussianBlur stdDeviation="12" result="b"/>
      <feMerge><feMergeNode in="b"/><feMergeNode in="SourceGraphic"/></feMerge>
    </filter>
    <filter id="soft" x="-80%" y="-80%" width="260%" height="260%">
      <feGaussianBlur stdDeviation="28"/>
    </filter>
    <pattern id="grain" width="80" height="80" patternUnits="userSpaceOnUse">
      <circle cx="8" cy="15" r="1" fill="#eacb84" opacity=".32"/>
      <circle cx="51" cy="22" r=".8" fill="#eacb84" opacity=".2"/>
      <circle cx="68" cy="61" r="1.2" fill="#eacb84" opacity=".22"/>
      <circle cx="25" cy="69" r=".65" fill="#eacb84" opacity=".25"/>
    </pattern>
  </defs>

  <rect width="1280" height="720" fill="url(#bg)"/>
  <rect width="1280" height="720" fill="url(#grain)" opacity=".7"/>
  <ellipse cx="640" cy="370" rx="410" ry="330" fill="url(#halo)" filter="url(#soft)"/>

  <g fill="none" stroke="#d1aa61" opacity=".3">
    <circle cx="640" cy="350" r="268" stroke-width="2"/>
    <circle cx="640" cy="350" r="220" stroke-width="1"/>
    <circle cx="640" cy="350" r="165" stroke-width="1" stroke-dasharray="3 13"/>
  </g>

  <g transform="translate(640 350)" fill="none" stroke="url(#inkGold)" stroke-linecap="round">
    <path d="M0 -128C96 -128 96 0 0 0S-96 128 0 128C-132 128 -132 -128 0 -128Z" stroke-width="13" opacity=".68"/>
    <path d="M0 128C-96 128 -96 0 0 0S96 -128 0 -128C132 -128 132 128 0 128Z" stroke-width="13" opacity=".42"/>
    <circle cy="-64" r="12" fill="#d7b269" stroke="none" opacity=".72"/>
    <circle cy="64" r="12" fill="#7891a0" stroke="none" opacity=".55"/>
  </g>

  <g transform="translate(640 350)" stroke="url(#gold)" stroke-width="9" stroke-linecap="round" opacity=".8" filter="url(#glow)">
    <path d="M-73 -58H73"/>
    <path d="M-73 -34H-14M14 -34H73"/>
    <path d="M-73 -10H73"/>
    <path d="M-73 14H-14M14 14H73"/>
    <path d="M-73 38H-14M14 38H73"/>
    <path d="M-73 62H73"/>
  </g>

  <g fill="none" stroke="url(#gold)" opacity=".58">
    <circle cx="420" cy="350" r="47" stroke-width="6"/>
    <rect x="404" y="334" width="32" height="32" rx="3" stroke-width="5"/>
    <circle cx="860" cy="350" r="47" stroke-width="6"/>
    <rect x="844" y="334" width="32" height="32" rx="3" stroke-width="5"/>
    <circle cx="640" cy="570" r="47" stroke-width="6"/>
    <rect x="624" y="554" width="32" height="32" rx="3" stroke-width="5"/>
  </g>

  <g fill="#e7c477" filter="url(#glow)">
    <circle cx="307" cy="212" r="2.8"/><circle cx="364" cy="500" r="2"/>
    <circle cx="495" cy="134" r="2.3"/><circle cx="785" cy="147" r="2.7"/>
    <circle cx="933" cy="238" r="2.1"/><circle cx="1005" cy="448" r="2.4"/>
    <circle cx="776" cy="600" r="2"/><circle cx="532" cy="615" r="2.4"/>
  </g>
</svg>
